<?xml version="1.0" encoding="UTF-8"?>
<!-- Generator: Adobe Illustrator 27.2.0, SVG Export Plug-In . SVG Version: 6.00 Build 0)  -->
<svg xmlns="http://www.w3.org/2000/svg" xmlns:xlink="http://www.w3.org/1999/xlink" version="1.1" id="Ebene_1" x="0px" y="0px" viewBox="0 0 275 60" style="enable-background:new 0 0 275 60;" xml:space="preserve">
<style type="text/css">
	.st0{fill:#FD7412;}
</style>
<g>
	<path d="M105.2,10.54l-3.9,17.55h-2.34l-4.46-18.06l-4.41,18.06h-2.25l-4.06-17.8c-0.25-1.14-0.5-2.28-1.01-3.33h2.98   c0.03,1.11,0.19,2.18,0.38,3.13l3.04,14.61l4.34-17.74h2.4l4.28,17.74l2.98-14.57c0.19-0.85,0.45-2,0.51-3.17h2.57   C105.77,8.13,105.45,9.37,105.2,10.54"></path>
	<path d="M116.65,28.09v-2.57c-1.71,1.52-3.29,2.79-5.54,2.79c-2.12,0-3.68-1.52-3.68-4.12c0-0.98,0.41-2.12,1.17-3.04   c1.52-1.78,4.15-2.57,8.04-2.98v-1.49c0-1.49-0.25-2.51-1.87-2.51c-1.49,0-3.68,0.6-5.58,1.9l-0.89-1.71   c2.38-1.36,4.63-2.09,6.85-2.09c0.89,0,1.87,0.32,2.53,0.82c1.14,0.89,1.08,2.06,1.08,3.58v8.2c0,1.33,0.09,2.53,0.22,3.2H116.65z    M116.65,19.89c-4.46,0.32-7.06,1.87-7.06,4.5c0,1.43,0.63,2.12,1.93,2.12c1.07,0,3.17-1.01,5.13-3.14V19.89z"></path>
	<path d="M123.2,28.09c0.13-0.73,0.19-1.9,0.19-3.2V8.61c0-1.3-0.06-2.5-0.19-3.2h2.51c-0.13,0.79-0.19,1.96-0.19,3.2v16.29   c0,1.2,0.06,2.37,0.19,3.2H123.2z"></path>
	<path d="M139.02,28.09v-2.22c-1.4,1.59-3.36,2.44-5.01,2.44c-3.13,0-4.69-2.57-4.69-7.64c0-5.48,2.19-8.43,5.67-8.43   c1.62,0,3.01,0.57,4.02,1.68V8.61c0-1.27-0.1-2.44-0.22-3.2h2.53c-0.13,0.99-0.19,2.12-0.19,3.2v16.28c0,1.05,0.03,2.19,0.19,3.2   H139.02z M139.02,16.12c-0.85-1.23-2.41-2.06-3.9-2.06c-2.31,0-3.55,2.22-3.55,6.69c0,3.68,0.92,5.54,2.82,5.54   c1.36,0,3.29-0.95,4.63-2.82V16.12z"></path>
	<path d="M150.77,28.28c-3.71,0-5.92-3.01-5.92-7.7c0-5.23,2.79-8.3,6.62-8.3c3.29,0,5.92,2.66,5.92,7.79   C157.39,25.18,154.83,28.28,150.77,28.28 M151.12,14.09c-2.31,0-4.02,2.09-4.02,6.3c0,3.83,1.39,6.08,4.06,6.08   c2.22,0,3.99-1.9,3.99-5.96C155.15,16.5,153.72,14.09,151.12,14.09"></path>
	<path d="M166.95,14.41c-1.05,0-2.34,1.05-3.71,3.04v7.44c0,1.21,0.06,2.38,0.19,3.2h-2.51c0.13-0.73,0.19-1.9,0.19-3.2v-9.06   c0-1.3-0.06-2.51-0.19-3.2h2.31v2.19c1.43-1.62,2.82-2.51,4.15-2.53v2.18C167.33,14.47,167.01,14.41,166.95,14.41"></path>
	<path d="M178.19,7.6c-0.76-0.35-1.46-0.63-2.57-0.63c-1.33,0-1.84,0.76-1.84,2.18v3.42h2.06c0.85,0,1.71,0,2.03-0.06v1.9   c-0.38-0.03-1.23-0.06-2.03-0.06h-2.06V24.9c0,1.27,0.06,2.44,0.19,3.2h-2.51c0.13-0.92,0.19-2.06,0.19-3.2V14.35h-2.28v-1.78h2.28   V9.69c0-2.73,0.67-4.53,3.8-4.53c1.17,0,2.31,0.29,3.39,0.76L178.19,7.6z"></path>
	<path d="M184.36,28.31c-2.73,0-5.16-2.34-5.16-8.05c0-5.23,2.25-8.01,6.46-8.01c1.14,0,2.57,0.22,3.68,0.6l-0.51,1.9   c-1.17-0.45-2.47-0.7-3.42-0.7c-2.51,0-3.96,2.06-3.96,6.12c0,4.05,1.2,6.11,3.61,6.11c1.3,0,2.69-0.7,4.18-1.93l1.08,1.52   C188.25,27.49,186.39,28.31,184.36,28.31"></path>
	<path d="M201.65,28.09v-2.57c-1.71,1.52-3.29,2.79-5.54,2.79c-2.12,0-3.68-1.52-3.68-4.12c0-0.98,0.41-2.12,1.17-3.04   c1.52-1.78,4.15-2.57,8.05-2.98v-1.49c0-1.49-0.25-2.51-1.87-2.51c-1.49,0-3.68,0.6-5.58,1.9l-0.89-1.71   c2.38-1.36,4.63-2.09,6.85-2.09c0.89,0,1.87,0.32,2.53,0.82c1.14,0.89,1.08,2.06,1.08,3.58v8.2c0,1.33,0.09,2.53,0.22,3.2H201.65z    M201.65,19.89c-4.47,0.32-7.07,1.87-7.07,4.5c0,1.43,0.63,2.12,1.94,2.12c1.07,0,3.17-1.01,5.13-3.14V19.89z"></path>
	<path d="M224.1,28.09c0.16-0.89,0.19-2.03,0.19-3.2v-7.64c0-1.87-0.35-3.07-1.58-3.07c-0.76,0-2.44,0.92-4.24,2.73v7.98   c0,1.33,0.06,2.53,0.19,3.2h-2.5c0.13-0.85,0.19-2.03,0.19-3.2v-7.57c0-1.68-0.19-3.14-1.56-3.14c-0.85,0-2.6,0.95-4.28,2.85v7.86   c0,1.2,0.06,2.37,0.19,3.2h-2.51c0.13-0.73,0.19-1.9,0.19-3.2v-9.06c0-1.3-0.06-2.5-0.19-3.2h2.31v2.18   c1.74-1.68,3.36-2.53,4.72-2.53c1.62,0,2.79,0.92,3.1,2.63c1.84-1.74,3.52-2.63,4.88-2.63c2.72,0,3.2,2.09,3.2,4.97v7.64   c0,1.05,0.03,2.15,0.19,3.2H224.1z"></path>
	<path d="M237.19,28.32c-1.74,0-2.91-0.54-4.02-1.68v4.81c0,1.23,0.06,2.38,0.19,3.17h-2.51c0.13-0.73,0.19-1.9,0.19-3.17V15.83   c0-1.3-0.06-2.5-0.19-3.2h2.31v2.06c1.36-1.55,3.36-2.41,5.01-2.41c3.17,0,4.69,2.51,4.69,7.64   C242.86,25.43,240.64,28.32,237.19,28.32 M237.79,14.31c-1.49,0-3.58,1.14-4.63,2.79v7.35c0.92,1.3,2.53,2.06,3.9,2.06   c2.38,0,3.55-2.22,3.55-6.62C240.61,16.02,239.69,14.31,237.79,14.31"></path>
	<path d="M255.16,28.09v-2.22c-1.84,1.58-3.58,2.4-5.41,2.4c-2.85,0-3.2-2.44-3.2-4.94v-7.51c0-1.3-0.06-2.5-0.19-3.2h2.5   c-0.12,0.79-0.19,1.96-0.19,3.2v7.51c0,1.52,0.06,3.04,1.74,3.04c1.05,0,3.29-0.98,4.75-2.63v-7.92c0-1.27-0.06-2.47-0.19-3.2h2.5   c-0.13,0.76-0.19,1.93-0.19,3.2v9.06c0,1.62,0.12,2.91,0.19,3.2H255.16z"></path>
	<path d="M264.39,28.31c-1.49,0-2.88-0.25-3.86-0.76l0.63-2.09c0.82,0.69,2.12,1.05,3.55,1.05c1.78,0,3.14-0.95,3.14-2.66   c0-1.74-1.87-2.47-4.59-3.77c-1.65-0.79-2.47-2.03-2.47-3.71c0-2.28,2.09-4.12,5.13-4.12c1.17,0,2.31,0.19,3.2,0.57l-0.48,2.09   c-0.73-0.54-1.8-0.86-2.88-0.86c-1.78,0-2.82,1.01-2.82,2.12c0,1.39,1.52,1.96,4.44,3.36c1.78,0.85,2.63,2.18,2.63,4.05   C270,26.13,267.97,28.31,264.39,28.31"></path>
	<path d="M99.14,58.6c0.13-0.92,0.19-2.06,0.19-3.2v-6.85c-1.17-0.09-2.95-0.16-5.07-0.16c-2.06,0-3.71,0.1-4.91,0.16v6.85   c0,1.14,0.06,2.28,0.19,3.2h-2.73c0.13-0.73,0.19-1.9,0.19-3.2V40.66c0-1.3-0.06-2.5-0.19-3.2h2.73c-0.13,0.89-0.19,2.03-0.19,3.2   v5.99c1.14-0.06,2.85-0.06,4.85-0.06c2.82,0,4.69,0.03,5.13,0.06v-5.99c0-1.17-0.06-2.31-0.19-3.2h2.73   c-0.13,0.73-0.19,1.93-0.19,3.2V55.4c0,1.23,0.06,2.44,0.19,3.2H99.14z"></path>
	<path d="M111.33,58.82c-3.2,0-5.52-2.6-5.52-8.02c0-4.81,2.41-8.04,6.08-8.04c3.23,0,5.42,2.97,5.42,6.65   c0,0.48-0.03,1.14-0.03,1.65c-1.4-0.06-2.98-0.16-4.69-0.16c-2.51,0-3.93,0.16-4.37,0.16v0.26c0,3.58,1.2,5.48,3.64,5.48   c1.01,0,2.95-0.76,4.46-2.18l1.17,1.42C115.54,57.84,113.3,58.82,111.33,58.82 M111.84,44.56c-1.87,0-3.33,1.58-3.61,4.75   c0.95-0.03,2.03-0.1,3.11-0.1c1.33,0,2.6,0,3.64,0.1C114.81,46.15,113.68,44.56,111.84,44.56"></path>
	<path d="M120.83,58.6c0.13-0.73,0.19-1.9,0.19-3.2v-9.06c0-1.3-0.06-2.5-0.19-3.2h2.51c-0.13,0.79-0.19,1.96-0.19,3.2v9.06   c0,1.2,0.06,2.37,0.19,3.2H120.83z M121.03,35.92h2.12v2.63h-2.12V35.92z"></path>
	<path d="M127.67,58.6c0.13-0.73,0.19-1.9,0.19-3.2V39.11c0-1.3-0.06-2.5-0.19-3.2h2.5c-0.12,0.79-0.19,1.96-0.19,3.2V55.4   c0,1.2,0.06,2.38,0.19,3.2H127.67z"></path>
	<path d="M140.84,58.82c-1.71,0-2.95-0.51-4.02-1.65v1.43h-2.31c0.13-0.73,0.19-1.9,0.19-3.2V39.11c0-1.3-0.06-2.5-0.19-3.2h2.51   c-0.13,0.79-0.19,1.96-0.19,3.2v6.08c1.33-1.55,3.42-2.41,5.01-2.41c3.13,0,4.69,2.53,4.69,7.64   C146.51,56,144.26,58.82,140.84,58.82 M141.44,44.82c-1.49,0-3.55,1.14-4.63,2.82v7.32c0.98,1.3,2.25,2.06,3.9,2.06   c2.41,0,3.55-2.22,3.55-6.62C144.26,46.56,143.34,44.82,141.44,44.82"></path>
	<path d="M156.17,44.91c-1.05,0-2.34,1.05-3.71,3.04v7.44c0,1.21,0.06,2.38,0.19,3.2h-2.51c0.13-0.73,0.19-1.9,0.19-3.2v-9.06   c0-1.3-0.06-2.51-0.19-3.2h2.31v2.19c1.43-1.62,2.82-2.51,4.15-2.54v2.19C156.55,44.98,156.24,44.91,156.17,44.91"></path>
	<path d="M163.9,58.79c-3.71,0-5.92-3.01-5.92-7.7c0-5.23,2.79-8.3,6.62-8.3c3.29,0,5.92,2.66,5.92,7.8   C170.53,55.68,167.96,58.79,163.9,58.79 M164.25,44.59c-2.31,0-4.02,2.09-4.02,6.3c0,3.83,1.39,6.08,4.06,6.08   c2.22,0,3.99-1.9,3.99-5.96C168.28,47,166.85,44.59,164.25,44.59"></path>
	<path d="M182.68,58.6c0.13-0.76,0.19-1.93,0.19-3.2v-7.64c0-1.62-0.16-3.07-1.71-3.07c-0.95,0-3.07,0.92-4.79,2.85v7.86   c0,1.2,0.06,2.38,0.19,3.2h-2.51c0.13-0.73,0.19-1.9,0.19-3.2v-9.06c0-1.3-0.06-2.5-0.19-3.2h2.31v2.18   c1.93-1.77,3.96-2.53,5.48-2.53c2.95,0,3.13,2.53,3.13,4.97v7.64c0,1.23,0.06,2.4,0.19,3.2H182.68z"></path>
	<path d="M198.03,58.6c0.13-0.76,0.19-1.93,0.19-3.2v-7.64c0-1.62-0.16-3.07-1.71-3.07c-0.95,0-3.07,0.92-4.79,2.85v7.86   c0,1.2,0.06,2.38,0.19,3.2h-2.51c0.13-0.73,0.19-1.9,0.19-3.2v-9.06c0-1.3-0.06-2.5-0.19-3.2h2.31v2.18   c1.93-1.77,3.96-2.53,5.48-2.53c2.95,0,3.13,2.53,3.13,4.97v7.64c0,1.23,0.06,2.4,0.19,3.2H198.03z"></path>
	<path class="st0" d="M69.41,5.67C71.73,34.35,53.28,51,38.13,59.58c0,0-15.51-12.76-21.24-19.21C11.49,34.26-3.5,18.6,4.55,9.83   c3.3-3.6,8.23-6.12,12.86-7.3c5.49-1.39,11.33-2.12,16.93-0.95c4.45,0.94,9.89,3.44,12.48,7.52c1.99,3.14,2.93,7.89,2.86,11.55   c-0.04,2.26-0.44,4.59-1.06,6.75c-1.85,6.43-6.36,13.21-10.61,18.24l-1.23-2.4c0,0,14.98-29.68-6.58-29.32   c0,0-23.73-0.06,7.97,38.01C61.99,31.51,50.84,5.68,50.84,5.68L69.41,5.67z"></path>
</g>
</svg>
