<svg xmlns="http://www.w3.org/2000/svg" width="64" height="64" viewBox="0 0 64 67" fill="none">
    <path d="M42.807 33.8459C42.9175 35.5093 42.5252 37.1674 41.6811 38.6049C40.8369 40.0424 39.5799 41.1928 38.0734 41.9066C36.5669 42.6204 34.8806 42.8646 33.2335 42.6074C31.5864 42.3503 30.0547 41.6037 28.8375 40.4647C27.6202 39.3257 26.7737 37.847 26.4079 36.2206C26.042 34.5942 26.1738 32.8953 26.7861 31.3448C27.3983 29.7942 28.4628 28.4637 29.8411 27.526C31.2195 26.5884 32.848 26.0869 34.515 26.0869C36.6428 26.0186 38.7109 26.7972 40.2654 28.2518C41.8199 29.7064 42.734 31.7182 42.807 33.8459Z" fill="#000000"></path>
    <path d="M14.774 25.6589C15.8079 23.2193 17.3577 21.0326 19.317 19.2489C21.2944 17.3046 23.6454 15.7813 26.228 14.7709C31.262 12.7836 36.863 12.7836 41.897 14.7709C44.479 15.7824 46.8298 17.3056 48.808 19.2489L53.724 23.8749L63.248 14.4749L58.486 9.84888C55.2129 6.63481 51.3189 4.12165 47.042 2.46288C38.6999 -0.820961 29.4231 -0.820961 21.081 2.46288C16.8047 4.12122 12.9114 6.63407 9.639 9.84788C6.37786 12.9551 3.81277 16.7185 2.113 20.8899C1.10027 23.3964 0.390903 26.0149 0 28.6899L14.774 25.6589Z" fill="#000000"></path>
    <path d="M48.809 47.7509C46.9039 49.7137 44.5964 51.2407 42.045 52.2269C39.4994 53.2194 36.7903 53.7259 34.058 53.7199C31.3257 53.7631 28.6125 53.2572 26.0795 52.232C23.5464 51.2068 21.2451 49.6833 19.312 47.7519C17.4407 45.9638 15.9366 43.8275 14.884 41.4629L0.00100159 38.3569C0.393105 41.0156 1.10007 43.6182 2.107 46.1099C3.80609 50.2816 6.37128 54.0452 9.633 57.1519C12.9063 60.3663 16.8001 62.8801 21.077 64.5399C29.4194 67.8205 38.6946 67.8205 47.037 64.5399C51.3136 62.8796 55.2074 60.3659 58.481 57.1519L63.243 52.5259L53.72 43.1259L48.809 47.7509Z" fill="#000000"></path>
</svg>
